<group> hivel=48
ampeg_sustain=.01 ampeg_decay=50 ampeg_release=0.15
<region> sample=2_C_p.wav pitch_keycenter=c2 hikey=c#2
<region> sample=2_Eb_p.wav pitch_keycenter=d#2 lokey=d2 hikey=e2
<region> sample=2_Gb_p.wav pitch_keycenter=f#2 lokey=f2 hikey=g2
<region> sample=2_A_p.wav pitch_keycenter=a2 lokey=g#2 hikey=a#2
<region> sample=3_C_p.wav pitch_keycenter=c3 lokey=b2 hikey=c#3
<region> sample=3_Eb_p.wav pitch_keycenter=d#3 lokey=d3 hikey=e3
<region> sample=3_Gb_p.wav pitch_keycenter=f#3 lokey=f3 hikey=g3
<region> sample=3_A_p.wav pitch_keycenter=a3 lokey=g#3 hikey=a#3
<region> sample=4_C_p.wav pitch_keycenter=c4 lokey=b3 hikey=c#4
<region> sample=4_Eb_p.wav pitch_keycenter=d#4 lokey=d4 hikey=e4
<region> sample=4_Gb_p.wav pitch_keycenter=f#4 lokey=f4 hikey=g4
<region> sample=4_A_p.wav pitch_keycenter=a4 lokey=g#4 hikey=a#4
<region> sample=5_C_p.wav pitch_keycenter=c5 lokey=b4 hikey=c#5
<region> sample=5_Eb_p.wav pitch_keycenter=d#5 lokey=d5 hikey=e5
<region> sample=5_Gb_p.wav pitch_keycenter=f#5 lokey=f5 hikey=g5
<region> sample=5_A_p.wav pitch_keycenter=a5 lokey=g#5 hikey=a#5
<region> sample=6_C_p.wav pitch_keycenter=c6 lokey=b5 hikey=c#6
<region> sample=6_Eb_p.wav pitch_keycenter=d#6 lokey=d6 hikey=e6
<region> sample=6_Gb_p.wav pitch_keycenter=f#6 lokey=f6 hikey=g6
<region> sample=6_A_p.wav pitch_keycenter=a6 lokey=g#6 hikey=c7

<group> lovel=49 hivel=64
ampeg_sustain=.01 ampeg_decay=50 ampeg_release=0.15
<region> sample=2_C_mp.wav pitch_keycenter=c2 hikey=c#2
<region> sample=2_Eb_mp.wav pitch_keycenter=d#2 lokey=d2 hikey=e2
<region> sample=2_Gb_mp.wav pitch_keycenter=f#2 lokey=f2 hikey=g2
<region> sample=2_A_mp.wav pitch_keycenter=a2 lokey=g#2 hikey=a#2
<region> sample=3_C_mp.wav pitch_keycenter=c3 lokey=b2 hikey=c#3
<region> sample=3_Eb_mp.wav pitch_keycenter=d#3 lokey=d3 hikey=e3
<region> sample=3_Gb_mp.wav pitch_keycenter=f#3 lokey=f3 hikey=g3
<region> sample=3_A_mp.wav pitch_keycenter=a3 lokey=g#3 hikey=a#3
<region> sample=4_C_mp.wav pitch_keycenter=c4 lokey=b3 hikey=c#4
<region> sample=4_Eb_mp.wav pitch_keycenter=d#4 lokey=d4 hikey=e4
<region> sample=4_Gb_mp.wav pitch_keycenter=f#4 lokey=f4 hikey=g4
<region> sample=4_A_mp.wav pitch_keycenter=a4 lokey=g#4 hikey=a#4
<region> sample=5_C_mp.wav pitch_keycenter=c5 lokey=b4 hikey=c#5
<region> sample=5_Eb_mp.wav pitch_keycenter=d#5 lokey=d5 hikey=e5
<region> sample=5_Gb_mp.wav pitch_keycenter=f#5 lokey=f5 hikey=g5
<region> sample=5_A_mp.wav pitch_keycenter=a5 lokey=g#5 hikey=a#5
<region> sample=6_C_mp.wav pitch_keycenter=c6 lokey=b5 hikey=c#6
<region> sample=6_Eb_mp.wav pitch_keycenter=d#6 lokey=d6 hikey=e6
<region> sample=6_Gb_mp.wav pitch_keycenter=f#6 lokey=f6 hikey=g6
<region> sample=6_A_mp.wav pitch_keycenter=a6 lokey=g#6 hikey=c7

<group> lovel=65 hivel=80
ampeg_sustain=.01 ampeg_decay=50 ampeg_release=0.15
<region> sample=2_C_mf.wav pitch_keycenter=c2 hikey=c#2
<region> sample=2_Eb_mf.wav pitch_keycenter=d#2 lokey=d2 hikey=e2
<region> sample=2_Gb_mf.wav pitch_keycenter=f#2 lokey=f2 hikey=g2
<region> sample=2_A_mf.wav pitch_keycenter=a2 lokey=g#2 hikey=a#2
<region> sample=3_C_mf.wav pitch_keycenter=c3 lokey=b2 hikey=c#3
<region> sample=3_Eb_mf.wav pitch_keycenter=d#3 lokey=d3 hikey=e3
<region> sample=3_Gb_mf.wav pitch_keycenter=f#3 lokey=f3 hikey=g3
<region> sample=3_A_mf.wav pitch_keycenter=a3 lokey=g#3 hikey=a#3
<region> sample=4_C_mf.wav pitch_keycenter=c4 lokey=b3 hikey=c#4
<region> sample=4_Eb_mf.wav pitch_keycenter=d#4 lokey=d4 hikey=e4
<region> sample=4_Gb_mf.wav pitch_keycenter=f#4 lokey=f4 hikey=g4
<region> sample=4_A_mf.wav pitch_keycenter=a4 lokey=g#4 hikey=a#4
<region> sample=5_C_mf.wav pitch_keycenter=c5 lokey=b4 hikey=c#5
<region> sample=5_Eb_mf.wav pitch_keycenter=d#5 lokey=d5 hikey=e5
<region> sample=5_Gb_mf.wav pitch_keycenter=f#5 lokey=f5 hikey=g5
<region> sample=5_A_mf.wav pitch_keycenter=a5 lokey=g#5 hikey=a#5
<region> sample=6_C_mf.wav pitch_keycenter=c6 lokey=b5 hikey=c#6
<region> sample=6_Eb_mf.wav pitch_keycenter=d#6 lokey=d6 hikey=e6
<region> sample=6_Gb_mf.wav pitch_keycenter=f#6 lokey=f6 hikey=g6
<region> sample=6_A_mf.wav pitch_keycenter=a6 lokey=g#6 hikey=c7

<group> lovel=81
ampeg_sustain=.01 ampeg_decay=50 ampeg_release=0.15
<region> sample=2_C_f.wav pitch_keycenter=c2 hikey=c#2
<region> sample=2_Eb_f.wav pitch_keycenter=d#2 lokey=d2 hikey=e2
<region> sample=2_Gb_f.wav pitch_keycenter=f#2 lokey=f2 hikey=g2
<region> sample=2_A_f.wav pitch_keycenter=a2 lokey=g#2 hikey=a#2
<region> sample=3_C_f.wav pitch_keycenter=c3 lokey=b2 hikey=c#3
<region> sample=3_Eb_f.wav pitch_keycenter=d#3 lokey=d3 hikey=e3
<region> sample=3_Gb_f.wav pitch_keycenter=f#3 lokey=f3 hikey=g3
<region> sample=3_A_f.wav pitch_keycenter=a3 lokey=g#3 hikey=a#3
<region> sample=4_C_f.wav pitch_keycenter=c4 lokey=b3 hikey=c#4
<region> sample=4_Eb_f.wav pitch_keycenter=d#4 lokey=d4 hikey=e4
<region> sample=4_Gb_f.wav pitch_keycenter=f#4 lokey=f4 hikey=g4
<region> sample=4_A_f.wav pitch_keycenter=a4 lokey=g#4 hikey=a#4
<region> sample=5_C_f.wav pitch_keycenter=c5 lokey=b4 hikey=c#5
<region> sample=5_Eb_f.wav pitch_keycenter=d#5 lokey=d5 hikey=e5
<region> sample=5_Gb_f.wav pitch_keycenter=f#5 lokey=f5 hikey=g5
<region> sample=5_A_f.wav pitch_keycenter=a5 lokey=g#5 hikey=a#5
<region> sample=6_C_f.wav pitch_keycenter=c6 lokey=b5 hikey=c#6
<region> sample=6_Eb_f.wav pitch_keycenter=d#6 lokey=d6 hikey=e6
<region> sample=6_Gb_f.wav pitch_keycenter=f#6 lokey=f6 hikey=g6
<region> sample=6_A_f.wav pitch_keycenter=a6 lokey=g#6 hikey=c7